<svg width="16" height="16" viewBox="0 0 16 16" fill="none" xmlns="http://www.w3.org/2000/svg">
<path d="M15.6484 3.84207L12.157 0.350665C12.0555 0.249089 11.9349 0.168514 11.8022 0.113541C11.6695 0.0585678 11.5272 0.0302734 11.3836 0.0302734C11.24 0.0302734 11.0977 0.0585678 10.965 0.113541C10.8323 0.168514 10.7117 0.249089 10.6102 0.350665L0.976564 9.98504C0.874795 10.0865 0.794098 10.207 0.739124 10.3398C0.68415 10.4725 0.655985 10.6148 0.656252 10.7585V14.2499C0.656252 14.54 0.771486 14.8182 0.976604 15.0233C1.18172 15.2284 1.45992 15.3436 1.75 15.3436H5.24141C5.38508 15.3439 5.52739 15.3157 5.66013 15.2608C5.79288 15.2058 5.91343 15.1251 6.01485 15.0233L15.6484 5.38895C15.75 5.28738 15.8306 5.1668 15.8856 5.03409C15.9405 4.90139 15.9688 4.75915 15.9688 4.61551C15.9688 4.47187 15.9405 4.32963 15.8856 4.19692C15.8306 4.06422 15.75 3.94364 15.6484 3.84207ZM5.35156 14.36C5.3224 14.3894 5.28278 14.406 5.24141 14.4061H1.75C1.70856 14.4061 1.66882 14.3897 1.63952 14.3604C1.61021 14.3311 1.59375 14.2913 1.59375 14.2499V10.7585C1.59393 10.7171 1.6105 10.6775 1.63985 10.6483L8.625 3.66238L12.3367 7.37488L5.35156 14.36ZM14.9852 4.72645L13 6.7116L9.28828 2.99988L11.2734 1.01395C11.288 0.999419 11.3052 0.987894 11.3242 0.980031C11.3431 0.972167 11.3635 0.96812 11.384 0.96812C11.4045 0.96812 11.4249 0.972167 11.4438 0.980031C11.4628 0.987894 11.48 0.999419 11.4945 1.01395L14.9852 4.50535C14.9997 4.51986 15.0112 4.5371 15.0191 4.55606C15.0269 4.57503 15.031 4.59537 15.031 4.6159C15.031 4.63643 15.0269 4.65677 15.0191 4.67573C15.0112 4.6947 14.9997 4.71193 14.9852 4.72645Z" fill="#585B5D"/>
</svg>
