<svg width="18" height="13" viewBox="0 0 18 13" fill="none" xmlns="http://www.w3.org/2000/svg">
<path d="M17.389 6.27219C17.3644 6.21664 16.7688 4.89547 15.4448 3.57148C13.6807 1.80734 11.4525 0.875 8.99999 0.875C6.54749 0.875 4.31929 1.80734 2.55515 3.57148C1.23117 4.89547 0.632806 6.21875 0.611009 6.27219C0.579026 6.34413 0.5625 6.42198 0.5625 6.5007C0.5625 6.57943 0.579026 6.65728 0.611009 6.72922C0.635618 6.78477 1.23117 8.10523 2.55515 9.42922C4.31929 11.1927 6.54749 12.125 8.99999 12.125C11.4525 12.125 13.6807 11.1927 15.4448 9.42922C16.7688 8.10523 17.3644 6.78477 17.389 6.72922C17.421 6.65728 17.4375 6.57943 17.4375 6.5007C17.4375 6.42198 17.421 6.34413 17.389 6.27219ZM8.99999 11C6.83578 11 4.94507 10.2132 3.37992 8.66211C2.73771 8.02346 2.19134 7.2952 1.75781 6.5C2.19123 5.70472 2.73761 4.97645 3.37992 4.33789C4.94507 2.7868 6.83578 2 8.99999 2C11.1642 2 13.0549 2.7868 14.6201 4.33789C15.2635 4.9763 15.8111 5.70457 16.2457 6.5C15.7387 7.44641 13.5302 11 8.99999 11ZM8.99999 3.125C8.33248 3.125 7.67996 3.32294 7.12494 3.69379C6.56993 4.06464 6.13735 4.59174 5.8819 5.20844C5.62645 5.82514 5.55962 6.50374 5.68984 7.15843C5.82007 7.81312 6.14151 8.41448 6.61351 8.88649C7.08551 9.35849 7.68688 9.67993 8.34156 9.81015C8.99625 9.94038 9.67485 9.87354 10.2916 9.61809C10.9083 9.36265 11.4354 8.93007 11.8062 8.37505C12.1771 7.82003 12.375 7.16751 12.375 6.5C12.3741 5.60518 12.0182 4.74728 11.3855 4.11454C10.7527 3.48181 9.89481 3.12593 8.99999 3.125ZM8.99999 8.75C8.55499 8.75 8.11997 8.61804 7.74996 8.37081C7.37995 8.12357 7.09156 7.77217 6.92127 7.36104C6.75097 6.9499 6.70641 6.4975 6.79323 6.06105C6.88004 5.62459 7.09434 5.22368 7.409 4.90901C7.72367 4.59434 8.12458 4.38005 8.56104 4.29323C8.9975 4.20642 9.4499 4.25097 9.86103 4.42127C10.2722 4.59157 10.6236 4.87996 10.8708 5.24997C11.118 5.61998 11.25 6.05499 11.25 6.5C11.25 7.09674 11.0129 7.66903 10.591 8.09099C10.169 8.51295 9.59673 8.75 8.99999 8.75Z" fill="#585B5D"/>
</svg>
